<?xml version="1.0" encoding="UTF-8"?>
<svg width="60" height="60" viewBox="0 0 60 60" xmlns="http://www.w3.org/2000/svg">
  <defs>
    <pattern id="flowers" x="0" y="0" width="20" height="20" patternUnits="userSpaceOnUse">
      <path fill="currentColor" d="M10 0C7.8 0 6 1.8 6 4s1.8 4 4 4 4-1.8 4-4-1.8-4-4-4zm0 2c1.1 0 2 .9 2 2s-.9 2-2 2-2-.9-2-2 .9-2 2-2z"/>
      <circle cx="10" cy="10" r="2" fill="currentColor"/>
      <path fill="currentColor" d="M14 10c0-2.2-1.8-4-4-4s-4 1.8-4 4 1.8 4 4 4 4-1.8 4-4zm-4 2c-1.1 0-2-.9-2-2s.9-2 2-2 2 .9 2 2-.9 2-2 2z"/>
    </pattern>
  </defs>
  <rect width="100%" height="100%" fill="url(#flowers)" opacity="0.1"/>
</svg> 