<?xml version="1.0" encoding="UTF-8"?>
<svg width="60" height="60" viewBox="0 0 60 60" fill="none" xmlns="http://www.w3.org/2000/svg">
  <pattern id="hearts" x="0" y="0" width="20" height="20" patternUnits="userSpaceOnUse">
    <path d="M10 17.8c-.6 0-1.2-.2-1.7-.6l-6.4-4.7c-1.2-.9-2-2.4-2-3.9 0-2.7 2.2-4.9 4.9-4.9 1.6 0 3.1.8 4 2.1.9-1.3 2.4-2.1 4-2.1 2.7 0 4.9 2.2 4.9 4.9 0 1.6-.8 3-2 3.9l-6.4 4.7c-.5.4-1.1.6-1.7.6z" fill="rgba(255,255,255,0.1)"/>
  </pattern>
  <rect width="60" height="60" fill="url(#hearts)"/>
</svg> 