<?xml version="1.0" encoding="UTF-8"?>
<svg width="120" height="120" viewBox="0 0 120 120" xmlns="http://www.w3.org/2000/svg">
    <!-- Background Circle -->
    <circle cx="60" cy="60" r="58" fill="#fff" stroke="#E11D48" stroke-width="2"/>
    
    <!-- Decorative Ring -->
    <circle cx="60" cy="60" r="52" fill="none" stroke="#E11D48" stroke-width="1" stroke-dasharray="4 4"/>
    
    <!-- Hearts -->
    <g transform="translate(60, 60) rotate(45)">
        <!-- Left Heart -->
        <path d="M-20 0 A10 10 0 0 1 0 -20 A10 10 0 0 1 20 0 L0 20 Z" 
              fill="#E11D48" 
              transform="translate(-12, 0) scale(0.6)"/>
        
        <!-- Right Heart -->
        <path d="M-20 0 A10 10 0 0 1 0 -20 A10 10 0 0 1 20 0 L0 20 Z" 
              fill="#E11D48" 
              transform="translate(12, 0) scale(0.6)"/>
    </g>
    
    <!-- Decorative Dots -->
    <circle cx="60" cy="20" r="3" fill="#E11D48"/>
    <circle cx="60" cy="100" r="3" fill="#E11D48"/>
    <circle cx="20" cy="60" r="3" fill="#E11D48"/>
    <circle cx="100" cy="60" r="3" fill="#E11D48"/>
    
    <!-- Sparkles -->
    <g fill="#FDA4AF">
        <circle cx="30" cy="30" r="2"/>
        <circle cx="90" cy="30" r="2"/>
        <circle cx="30" cy="90" r="2"/>
        <circle cx="90" cy="90" r="2"/>
    </g>
</svg> 