<?xml version="1.0" encoding="UTF-8"?>
<svg width="80" height="24" viewBox="0 0 80 24" fill="none" xmlns="http://www.w3.org/2000/svg">
  <rect width="80" height="24" rx="4" fill="white"/>
  <path d="M50 12C50 16.4183 46.4183 20 42 20C37.5817 20 34 16.4183 34 12C34 7.58172 37.5817 4 42 4C46.4183 4 50 7.58172 50 12Z" fill="#EB001B"/>
  <path d="M46 12C46 16.4183 42.4183 20 38 20C33.5817 20 30 16.4183 30 12C30 7.58172 33.5817 4 38 4C42.4183 4 46 7.58172 46 12Z" fill="#F79E1B"/>
  <path d="M42 8C40.6193 9.38072 39.7989 11.1919 39.7989 13C39.7989 14.8081 40.6193 16.6193 42 18C43.3807 16.6193 44.2011 14.8081 44.2011 13C44.2011 11.1919 43.3807 9.38072 42 8Z" fill="#FF5F00"/>
</svg> 