<svg width="80" height="24" viewBox="0 0 80 24" fill="none" xmlns="http://www.w3.org/2000/svg">
  <rect width="80" height="24" rx="4" fill="white"/>
  <path d="M35.5 10.2C35.5 12.3 34 13.8 31.7 13.8H30.3C30.1 13.8 29.9 14 29.9 14.2L29.3 17.7C29.3 17.9 29.1 18 28.9 18H26.7C26.5 18 26.3 17.8 26.4 17.6L28.8 6.2C28.9 6 29 5.9 29.2 5.9H33.7C34.8 5.9 35.5 6.6 35.5 7.6C35.5 7.8 35.5 8 35.5 10.2Z" fill="#253B80"/>
  <path d="M44.5 10.2C44.5 12.3 43 13.8 40.7 13.8H39.3C39.1 13.8 38.9 14 38.9 14.2L38.3 17.7C38.3 17.9 38.1 18 37.9 18H35.7C35.5 18 35.3 17.8 35.4 17.6L37.8 6.2C37.9 6 38 5.9 38.2 5.9H42.7C43.8 5.9 44.5 6.6 44.5 7.6C44.5 7.8 44.5 8 44.5 10.2Z" fill="#179BD7"/>
  <path d="M35.5 7.6C35.5 7.8 35.5 8 35.5 8.2C34.7 10.9 32.9 11.9 30.5 11.9H29.1C28.9 11.9 28.7 12.1 28.6 12.3L27.8 17.1C27.8 17.3 27.6 17.4 27.4 17.4H25.2C25 17.4 24.8 17.2 24.9 17L27.3 5.6C27.4 5.4 27.5 5.3 27.7 5.3H32.2C33.3 5.3 34 6 35.5 7.6Z" fill="#253B80"/>
  <path d="M53.5 10.2C53.5 12.3 52 13.8 49.7 13.8H48.3C48.1 13.8 47.9 14 47.9 14.2L47.3 17.7C47.3 17.9 47.1 18 46.9 18H44.7C44.5 18 44.3 17.8 44.4 17.6L46.8 6.2C46.9 6 47 5.9 47.2 5.9H51.7C52.8 5.9 53.5 6.6 53.5 7.6C53.5 7.8 53.5 8 53.5 10.2Z" fill="#179BD7"/>
</svg> 