<?xml version="1.0" encoding="UTF-8"?>
<svg width="60" height="20" viewBox="0 0 60 20" xmlns="http://www.w3.org/2000/svg">
    <path d="M45.938 4.813c0 2.937-1.563 5.25-4.688 5.25h-3.75l-1.25 4.687h-3.125l3.75-14.063h6.875c1.875 0 2.188 1.563 2.188 4.126zm-4.688 2.812c1.25 0 1.875-.938 1.875-2.188 0-.625-.313-1.25-1.25-1.25h-2.5l-.938 3.438h2.813zm-15.625-7.5l-3.75 14.063h3.125l1.25-4.687h3.75c3.125 0 4.688-2.313 4.688-5.25 0-2.563-.313-4.126-2.188-4.126h-6.875zm4.688 6.875h-2.813l.938-3.438h2.5c.938 0 1.25.625 1.25 1.25 0 1.25-.625 2.188-1.875 2.188z" fill="#003087"/>
    <path d="M45.938 4.813c0 2.937-1.563 5.25-4.688 5.25h-3.75l-1.25 4.687h-3.125l3.75-14.063h6.875c1.875 0 2.188 1.563 2.188 4.126zm-4.688 2.812c1.25 0 1.875-.938 1.875-2.188 0-.625-.313-1.25-1.25-1.25h-2.5l-.938 3.438h2.813zm-15.625-7.5l-3.75 14.063h3.125l1.25-4.687h3.75c3.125 0 4.688-2.313 4.688-5.25 0-2.563-.313-4.126-2.188-4.126h-6.875zm4.688 6.875h-2.813l.938-3.438h2.5c.938 0 1.25.625 1.25 1.25 0 1.25-.625 2.188-1.875 2.188z" fill="#009CDE"/>
</svg> 