<?xml version="1.0" encoding="UTF-8"?>
<svg width="80" height="24" viewBox="0 0 80 24" fill="none" xmlns="http://www.w3.org/2000/svg">
  <rect width="80" height="24" rx="4" fill="white"/>
  <path d="M35.1 15.7H32L34.1 8.3H37.2L35.1 15.7Z" fill="#00579F"/>
  <path d="M46.2 8.5C45.5 8.2 44.4 8 43.1 8C40.1 8 38 9.5 38 11.7C38 13.3 39.5 14.2 40.7 14.8C41.9 15.3 42.3 15.7 42.3 16.2C42.3 16.9 41.4 17.2 40.6 17.2C39.5 17.2 38.9 17 37.9 16.6L37.5 16.4L37 19.1C37.8 19.5 39.2 19.8 40.7 19.8C43.9 19.8 45.9 18.3 45.9 15.9C45.9 14.6 45.1 13.6 43.3 12.7C42.2 12.2 41.5 11.8 41.5 11.2C41.5 10.7 42.1 10.2 43.2 10.2C44.1 10.2 44.8 10.4 45.3 10.6L45.6 10.7L46.2 8.5Z" fill="#00579F"/>
  <path d="M49.4 13.2C49.7 12.4 50.8 9.6 50.8 9.6C50.8 9.6 51 9.1 51.1 8.8L51.3 9.5C51.3 9.5 52 12.5 52.1 13.2H49.4ZM53.6 8.3H51.3C50.7 8.3 50.2 8.5 49.9 9.2L45.7 15.7H48.9C48.9 15.7 49.3 14.6 49.4 14.3C49.7 14.3 52.6 14.3 53 14.3C53.1 14.7 53.3 15.7 53.3 15.7H56.1L53.6 8.3Z" fill="#00579F"/>
  <path d="M30.6 8.3L27.6 13.6L27.2 11.5C26.6 9.8 25.1 8.9 23.5 8.4L26.2 15.7H29.5L34.1 8.3H30.6Z" fill="#00579F"/>
  <path d="M25.1 8.3H20.2L20.1 8.5C23.6 9.3 26 11.2 27 13.6L25.9 9.2C25.7 8.5 25.5 8.3 25.1 8.3Z" fill="#FAA61A"/>
</svg> 