<?xml version="1.0" encoding="UTF-8"?>
<svg width="60" height="20" viewBox="0 0 60 20" xmlns="http://www.w3.org/2000/svg">
    <path d="M25.877 2.825l-4.607 14.35h-4.607L13.056 4.95c-.307-1.225-.575-1.675-1.512-2.188C10.244 2.125 8.4 1.6 6.8 1.25l.112-.425h7.944c1.012 0 1.925.75 2.156 2.05l1.969 10.475 4.856-12.525h4.607l-2.567 14.35zm18.426 9.675c.019-4.813-6.656-5.075-6.606-7.225.019-.65.638-1.35 2-1.525.675-.088 2.538-.15 4.644.775l.825-3.85C43.928.3 42.428 0 40.59 0c-4.344 0-7.4 2.313-7.425 5.625-.025 2.45 2.181 3.813 3.844 4.625 1.706.838 2.281 1.375 2.275 2.125-.013 1.15-1.363 1.65-2.619 1.675-2.2.037-3.476-.594-4.494-1.069l-.794 3.713c1.019.469 2.9.875 4.85.894 4.582 0 7.582-2.287 7.594-5.838M54.928 17.175h4.069L55.54 2.825h-3.756c-.844 0-1.557.488-1.869 1.238l-6.584 13.112h4.619l.913-2.525h5.625l.438 2.525zm-4.856-6.063l2.313-6.375 1.331 6.375h-3.644z" fill="#1434CB"/>
</svg> 